<svg xmlns="http://www.w3.org/2000/svg" xmlns:xlink="http://www.w3.org/1999/xlink" width="500" zoomAndPan="magnify" viewBox="0 0 375 374.999991" height="500" preserveAspectRatio="xMidYMid meet" version="1.0"><defs><g/></defs><rect x="-37.5" width="450" fill="#ffffff" y="-37.499999" height="449.999989" fill-opacity="1"/><rect x="-37.5" width="450" fill="#000000" y="-37.499999" height="449.999989" fill-opacity="1"/><g fill="#b026ff" fill-opacity="1"><g transform="translate(71.493702, 293.501165)"><g><path d="M 108.234375 0 C 94.453125 -15.171875 81.34375 -38.265625 73.765625 -63.078125 L 125.125 -63.078125 C 136.5 -29.296875 164.078125 2.40625 202 2.40625 C 219.578125 2.40625 241.640625 -4.140625 255.421875 -23.4375 L 249.5625 -29.640625 C 238.53125 -17.921875 220.953125 -19.296875 212.34375 -38.953125 C 198.546875 -71.015625 191.3125 -112.03125 176.484375 -156.15625 C 163.734375 -194.75 128.234375 -235.4375 58.59375 -235.4375 L 58.59375 -226.46875 C 74.109375 -226.46875 80.3125 -211.640625 89.28125 -182.6875 C 80.3125 -171.65625 70.671875 -159.25 63.078125 -147.53125 C 39.984375 -112.375 6.203125 -49.640625 6.203125 0 Z M 122.375 -71.359375 L 71.703125 -71.359375 C 64.109375 -100.65625 64.453125 -132.015625 79.96875 -155.46875 C 84.109375 -161.671875 88.25 -167.1875 92.375 -173.046875 C 102.375 -140.640625 112.03125 -103.0625 122.375 -71.359375 Z M 122.375 -71.359375 "/></g></g></g></svg>